<?xml version="1.0" encoding="UTF-8"?>
<svg id="Capa_1" data-name="Capa 1" xmlns="http://www.w3.org/2000/svg" viewBox="0 0 593.6 157.76">
  <defs>
    <style>
      .cls-1 {
        fill: #5e6127;
      }

      .cls-2 {
        fill: #4a8b2c;
      }
    </style>
  </defs>
  <path class="cls-1" d="M205.95,119.24h19.53v-29.5h28.24v-13.86h-28.24v-16.06h29.5v-13.86h-49.03v73.28ZM312.83,97.4v-3.47c0-4.27-.53-8.22-1.57-11.86-.98-3.71-2.59-6.96-4.83-9.76-2.17-2.8-5.04-5-8.61-6.61-3.5-1.61-7.7-2.41-12.6-2.41-8.68,0-15.68,2.49-21,7.45-2.66,2.52-4.73,5.56-6.19,9.13-1.4,3.57-2.1,7.56-2.1,11.97s.81,8.4,2.42,11.97c1.61,3.57,3.85,6.61,6.72,9.13,2.87,2.45,6.23,4.34,10.08,5.67,3.85,1.26,8.05,1.89,12.6,1.89,7.56,0,14.24-1.15,20.05-3.46v-13.34c-2.73,1.47-5.53,2.55-8.4,3.26-2.8.63-5.56.94-8.29.94-4.76,0-8.51-.84-11.24-2.52-2.73-1.68-4.34-4.34-4.83-7.98h37.8ZM274.82,86.69c.21-3.36,1.19-6.09,2.94-8.19,1.82-2.17,4.34-3.26,7.56-3.26,3.57,0,6.19,1.05,7.87,3.15,1.75,2.1,2.63,4.86,2.63,8.29h-21ZM357.34,63.91c-2.52-.42-4.66-.63-6.4-.63-3.92,0-7.17.98-9.76,2.94-2.52,1.89-4.65,4.69-6.4,8.4h-.21v-10.08h-17.21v54.7h18.9v-23.1c0-5.39,1.19-9.59,3.57-12.6,2.38-3.01,5.78-4.52,10.18-4.52,2.87,0,5,.21,6.4.63l.95-15.75ZM362.4,100.02c0,3.43.31,6.4.95,8.92.63,2.45,1.71,4.55,3.25,6.3,1.61,1.68,3.78,2.97,6.51,3.89,2.73.91,6.16,1.36,10.29,1.36,2.45,0,5.64-.25,9.56-.73.84-.14,1.61-.25,2.31-.31l-.63-12.28c-.28.07-.63.14-1.05.21-2.1.35-3.67.53-4.72.53-2.87,0-4.86-.77-5.98-2.31-1.05-1.61-1.57-4.17-1.57-7.66v-20.16h13.23v-13.23h-13.23v-18.06l-18.59,5.78-.31,47.77ZM402.6,119.24h18.9v-54.7h-18.9v54.7ZM421.49,41.76h-18.9v13.86h18.9v-13.86ZM430.44,119.24h18.9v-23.1c0-11.41,3.92-17.11,11.76-17.11,2.73,0,4.86,1.09,6.4,3.26,1.54,2.1,2.31,5.6,2.31,10.5v26.46h18.9v-34.12c0-2.94-.42-5.7-1.26-8.29-.77-2.59-1.99-4.9-3.67-6.93-1.68-2.1-3.85-3.71-6.51-4.83-2.66-1.19-5.81-1.79-9.45-1.79-4.48,0-8.47.95-11.97,2.83-3.5,1.89-6.16,4.72-7.98,8.5h-.21v-10.08h-17.22v54.7ZM550.77,119.24c-.7-3.57-1.05-7.87-1.05-12.91v-20.37c0-4.06-.67-7.52-1.99-10.39-1.33-2.94-3.22-5.32-5.67-7.14-2.38-1.82-5.15-3.12-8.29-3.89-3.08-.84-6.44-1.26-10.08-1.26-8.19,0-15.47,1.29-21.84,3.89l.32,12.81c2.52-1.4,5.25-2.41,8.19-3.05,3.01-.7,6.09-1.05,9.24-1.05,3.78,0,6.79.7,9.03,2.1,2.24,1.4,3.39,3.85,3.47,7.35-1.33-.21-2.8-.38-4.41-.52-1.54-.14-3.01-.21-4.41-.21-3.08,0-6.19.24-9.34.73-3.08.42-6.09,1.3-9.03,2.63-2.87,1.26-5.25,3.15-7.14,5.67-1.82,2.52-2.73,5.74-2.73,9.66,0,5.6,1.96,9.87,5.88,12.81,3.92,2.94,8.78,4.41,14.59,4.41,3.85,0,7.14-.77,9.87-2.31,2.8-1.61,5.28-4.13,7.45-7.56h.21c0,1.19.07,2.87.21,5.04.14,1.82.21,3.01.21,3.57h17.33ZM512.66,101.91c0-2.52,1.05-4.34,3.15-5.46,2.1-1.19,4.86-1.78,8.3-1.78,1.12,0,3.04.07,5.77.21.49,0,1.23.03,2.21.11,0,3.36-1.09,6.37-3.26,9.03-2.17,2.59-4.97,3.89-8.4,3.89-2.31,0-4.2-.53-5.67-1.57-1.4-1.12-2.1-2.59-2.1-4.41M557.47,119.24h18.9V40.49h-18.9v78.74Z"/>
  <path class="cls-2" d="M77.4,131.73c6.47,1.62,13.32,2.48,20.47,2.48,37.49,0,67.87-24.05,67.87-53.71,0-19.25-12.88-36.23-32.11-45.71,1.4,2.78,2.24,6.17,2.24,9.5.02,9.85-4.42,14.12-8.06,15.96l-54.08,28.15c-2.49,1.25-4.12,2.35-6.01,4.58-1.59,1.87-2.6,3.24-3.04,5.52-.16,1.28-.57,2.08-1.59,2.1-.93.01-1.76-.81-1.73-1.73l.99-16.68c.41-4.85.99-7.38,3.54-11.18,1.99-2.98,3.17-4.34,6.25-6.16l48.07-25.4c1.9-.99,2.84-2.54,2.88-4.68.05-2.82-1.97-4.77-4.68-5.51l-.86-.31c-6.24-1.5-12.83-2.14-19.69-2.14-37.49,0-67.88,24.05-67.88,53.71,0,19.51,13.23,36.57,32.9,45.97-1.4-2.78-2.7-6.9-2.7-10.23,0-5.98,1.34-12.05,7.22-15.41l54.85-28.87c2.49-1.49,4.06-2.28,6.07-4.41,1.47-1.56,2.32-3.22,2.98-5.55.34-1.17.62-2.05,1.65-2.06.93-.01,1.77.49,1.72,1.44l-.98,16.97c-.41,4.85-.99,7.38-3.53,11.18-1.99,2.98-6.95,6.26-10.03,8.09l-44.3,23.47c-1.86,1.06-2.76,2.54-2.87,4.69-.16,2.94,1.68,5.2,4.39,5.94h.04ZM17.9,80.49C17.9,43.99,53.7,14.39,97.87,14.39s79.98,29.6,79.98,66.11-35.81,66.11-79.98,66.11S17.9,117,17.9,80.49"/>
  <path class="cls-2" d="M171.57,24.73c-.31-.12-.75-.18-1.3-.18h-.54v2.48h.87c.52,0,.93-.11,1.23-.32.3-.21.44-.55.44-1.02s-.23-.79-.69-.97M167.48,31.59v-8.55h2.37s1.77.02,1.77.02c.68.05,1.24.2,1.68.44.76.42,1.14,1.1,1.14,2.04,0,.72-.2,1.24-.61,1.56-.4.32-.89.51-1.48.57.54.11.94.28,1.21.49.51.4.76,1.04.76,1.91v.76l.07.51-2.06.24c-.07-.27-.11-.66-.14-1.18-.02-.52-.06-.86-.13-1.05-.11-.3-.32-.51-.63-.63-.16-.07-.42-.11-.76-.14l-.49-.03h-.47v3.03h-2.24ZM176.27,32.84c-1.5,1.45-3.3,2.18-5.4,2.18s-4-.75-5.49-2.23c-1.48-1.48-2.23-3.32-2.23-5.48s.8-4.13,2.41-5.62c1.51-1.4,3.28-2.1,5.31-2.1s3.94.76,5.45,2.26c1.51,1.51,2.26,3.33,2.26,5.46s-.77,4.04-2.31,5.53M166.34,22.83c-1.23,1.26-1.84,2.75-1.84,4.47s.63,3.3,1.88,4.55c1.24,1.24,2.74,1.87,4.5,1.87s3.25-.63,4.49-1.88c1.24-1.26,1.86-2.78,1.86-4.54s-.62-3.21-1.86-4.47c-1.25-1.28-2.75-1.93-4.5-1.93s-3.28.64-4.53,1.93"/>
</svg>