<?xml version="1.0" encoding="UTF-8"?>
<svg id="Capa_1" data-name="Capa 1" xmlns="http://www.w3.org/2000/svg" viewBox="0 0 593.6 417.2">
  <defs>
    <style>
      .cls-1 {
        fill: #5e6127;
      }

      .cls-2 {
        fill: #4a8b2c;
      }
    </style>
  </defs>
  <path class="cls-2" d="M261.07,232c11.87,2.97,24.42,4.54,37.53,4.54,68.72,0,124.43-44.08,124.43-98.47,0-35.29-23.61-66.41-58.87-83.8,2.56,5.09,4.1,11.3,4.1,17.41.04,18.05-8.11,25.89-14.77,29.27l-99.13,51.6c-4.57,2.28-7.54,4.31-11.02,8.4-2.91,3.43-4.77,5.94-5.56,10.11-.3,2.35-1.04,3.81-2.92,3.84-1.7.02-3.22-1.47-3.17-3.18l1.81-30.58c.75-8.89,1.82-13.53,6.48-20.49,3.65-5.46,5.82-7.95,11.47-11.3l88.13-46.57c3.48-1.82,5.2-4.66,5.27-8.59.1-5.17-3.62-8.74-8.59-10.1l-1.58-.57c-11.44-2.75-23.51-3.93-36.09-3.93-68.72,0-124.43,44.08-124.43,98.47,0,35.78,24.25,67.04,60.31,84.28-2.56-5.09-4.95-12.65-4.95-18.76,0-10.97,2.46-22.09,13.24-28.25l100.56-52.93c4.56-2.73,7.44-4.19,11.13-8.09,2.69-2.85,4.26-5.9,5.46-10.17.64-2.16,1.14-3.76,3.03-3.79,1.7-.02,3.25.89,3.16,2.64l-1.8,31.12c-.75,8.89-1.82,13.53-6.48,20.49-3.65,5.46-12.73,11.49-18.38,14.84l-81.22,43.03c-3.42,1.94-5.06,4.66-5.27,8.59-.3,5.38,3.07,9.54,8.05,10.9l.08.02ZM151.98,138.07c0-66.93,65.64-121.19,146.62-121.19s146.62,54.26,146.62,121.19-65.64,121.19-146.62,121.19-146.62-54.26-146.62-121.19Z"/>
  <path class="cls-1" d="M17.54,398.01h29.63v-44.77h42.86v-21.03h-42.86v-24.38h44.77v-21.03H17.54v111.2ZM179.73,364.87v-5.26c0-6.48-.8-12.48-2.39-18-1.49-5.63-3.93-10.57-7.33-14.82-3.29-4.25-7.65-7.59-13.06-10.04-5.31-2.44-11.68-3.66-19.12-3.66-13.17,0-23.79,3.77-31.87,11.31-4.04,3.82-7.17,8.44-9.4,13.86-2.12,5.42-3.19,11.47-3.19,18.16s1.22,12.74,3.66,18.16c2.44,5.42,5.84,10.04,10.2,13.86,4.35,3.72,9.45,6.59,15.29,8.6,5.84,1.91,12.22,2.87,19.12,2.87,11.47,0,21.61-1.75,30.43-5.26v-20.23c-4.14,2.23-8.39,3.88-12.75,4.94-4.25.96-8.44,1.43-12.59,1.43-7.22,0-12.91-1.28-17.05-3.82-4.14-2.55-6.58-6.58-7.33-12.11h57.36ZM122.06,348.62c.32-5.1,1.8-9.24,4.46-12.42,2.76-3.29,6.58-4.94,11.47-4.94,5.42,0,9.4,1.59,11.95,4.78,2.66,3.19,3.98,7.38,3.98,12.59h-31.86ZM247.28,314.05c-3.82-.64-7.06-.96-9.72-.96-5.95,0-10.89,1.49-14.82,4.46-3.82,2.87-7.06,7.12-9.72,12.75h-.32v-15.3h-26.13v83h28.68v-35.05c0-8.18,1.81-14.55,5.42-19.12,3.61-4.56,8.76-6.85,15.45-6.85,4.36,0,7.59.32,9.72.95l1.43-23.9ZM254.95,368.86c0,5.2.48,9.72,1.43,13.54.96,3.72,2.6,6.9,4.94,9.56,2.44,2.55,5.74,4.51,9.88,5.89,4.14,1.38,9.35,2.07,15.61,2.07,3.72,0,8.55-.37,14.5-1.12,1.27-.21,2.44-.37,3.51-.48l-.95-18.64c-.43.11-.96.21-1.6.32-3.18.53-5.57.8-7.17.8-4.35,0-7.38-1.17-9.08-3.5-1.59-2.44-2.39-6.32-2.39-11.63v-30.59h20.07v-20.07h-20.07v-27.4l-28.2,8.76-.48,72.49ZM315.95,398.01h28.68v-83h-28.68v83ZM344.63,280.43h-28.68v21.03h28.68v-21.03ZM358.21,398.01h28.68v-35.05c0-17.31,5.95-25.97,17.84-25.97,4.14,0,7.38,1.65,9.72,4.94,2.34,3.19,3.51,8.5,3.51,15.93v40.15h28.68v-51.78c0-4.46-.64-8.65-1.91-12.59-1.17-3.93-3.03-7.44-5.58-10.51-2.55-3.19-5.84-5.63-9.88-7.33-4.04-1.81-8.82-2.71-14.34-2.71-6.8,0-12.85,1.43-18.16,4.3-5.31,2.87-9.35,7.17-12.11,12.91h-.32v-15.3h-26.13v83ZM540.81,398.01c-1.06-5.42-1.59-11.95-1.59-19.59v-30.91c0-6.16-1.01-11.42-3.03-15.77-2.02-4.46-4.89-8.07-8.6-10.84-3.61-2.76-7.81-4.73-12.59-5.89-4.67-1.27-9.77-1.91-15.3-1.91-12.43,0-23.47,1.97-33.14,5.9l.48,19.43c3.82-2.12,7.96-3.66,12.43-4.62,4.57-1.06,9.24-1.59,14.02-1.59,5.73,0,10.3,1.06,13.7,3.19,3.4,2.12,5.15,5.84,5.26,11.15-2.02-.32-4.25-.58-6.69-.8-2.34-.21-4.57-.32-6.69-.32-4.67,0-9.4.37-14.18,1.11-4.67.64-9.24,1.97-13.7,3.98-4.36,1.91-7.97,4.78-10.83,8.6-2.76,3.82-4.14,8.71-4.14,14.66,0,8.5,2.97,14.98,8.92,19.44,5.95,4.46,13.33,6.69,22.14,6.69,5.84,0,10.83-1.17,14.98-3.5,4.25-2.44,8.02-6.27,11.31-11.47h.32c0,1.8.11,4.35.32,7.65.21,2.76.32,4.57.32,5.42h26.29ZM482.97,371.72c0-3.82,1.6-6.59,4.78-8.29,3.19-1.8,7.38-2.71,12.59-2.71,1.7,0,4.62.11,8.76.32.74,0,1.86.05,3.35.16,0,5.1-1.65,9.67-4.94,13.7-3.29,3.93-7.54,5.89-12.74,5.89-3.51,0-6.38-.8-8.6-2.39-2.12-1.7-3.19-3.93-3.19-6.69ZM550.98,398.01h28.68v-119.49h-28.68v119.49Z"/>
  <path class="cls-2" d="M442.41,36.03c-.73-.28-1.76-.42-3.09-.42h-1.29v5.9h2.07c1.24,0,2.22-.25,2.91-.75.7-.5,1.05-1.3,1.05-2.41s-.55-1.88-1.64-2.32ZM432.7,52.36v-20.34l5.65.02,4.21.03c1.61.12,2.95.46,4.01,1.05,1.81,1,2.71,2.61,2.71,4.85,0,1.71-.48,2.95-1.44,3.71-.95.76-2.12,1.22-3.51,1.37,1.28.27,2.24.66,2.89,1.17,1.19.96,1.79,2.48,1.79,4.56v1.82l.17,1.19-4.9.57c-.17-.65-.27-1.59-.32-2.81-.05-1.23-.16-2.06-.32-2.49-.27-.71-.76-1.21-1.49-1.49-.4-.17-1-.27-1.82-.32l-1.17-.07h-1.12v7.19h-5.33ZM453.59,55.32c-3.57,3.45-7.85,5.18-12.85,5.18s-9.51-1.77-13.04-5.3c-3.53-3.54-5.3-7.88-5.3-13.04s1.91-9.82,5.73-13.37c3.58-3.32,7.79-4.98,12.62-4.98,5.06,0,9.39,1.79,12.97,5.38,3.58,3.58,5.38,7.91,5.38,12.97s-1.83,9.6-5.5,13.17ZM429.97,31.52c-2.92,2.99-4.38,6.53-4.38,10.63s1.49,7.86,4.46,10.83c2.95,2.97,6.52,4.46,10.7,4.46s7.73-1.49,10.68-4.48c2.95-3,4.43-6.61,4.43-10.8s-1.47-7.63-4.41-10.63c-2.97-3.05-6.54-4.58-10.7-4.58-4.22,0-7.81,1.53-10.78,4.58Z"/>
</svg>